<mxfile host="app.diagrams.net" modified="2023-12-20T08:37:33.402Z" agent="Mozilla/5.0 (Windows NT 10.0; Win64; x64) AppleWebKit/537.36 (KHTML, like Gecko) Chrome/120.0.0.0 Safari/537.36" etag="zDqWHx7Jcx8KcFRNEVfJ" version="21.8.0" type="github" pages="2">
  <diagram name="第 1 页" id="1T-93aZBtWUWsuB6PJng">
    <mxGraphModel dx="1434" dy="780" grid="1" gridSize="10" guides="1" tooltips="1" connect="1" arrows="1" fold="1" page="1" pageScale="1" pageWidth="827" pageHeight="1169" math="0" shadow="0">
      <root>
        <mxCell id="0" />
        <mxCell id="1" parent="0" />
        <mxCell id="ghUi32SfYxXEX1xinj7Y-5" style="edgeStyle=orthogonalEdgeStyle;rounded=0;orthogonalLoop=1;jettySize=auto;html=1;" edge="1" parent="1" source="ghUi32SfYxXEX1xinj7Y-1" target="ghUi32SfYxXEX1xinj7Y-2">
          <mxGeometry relative="1" as="geometry" />
        </mxCell>
        <mxCell id="ghUi32SfYxXEX1xinj7Y-1" value="&lt;font style=&quot;font-size: 18px;&quot;&gt;设计数据血缘模型&lt;/font&gt;" style="rounded=0;whiteSpace=wrap;html=1;" vertex="1" parent="1">
          <mxGeometry x="330" y="190" width="170" height="60" as="geometry" />
        </mxCell>
        <mxCell id="ghUi32SfYxXEX1xinj7Y-6" style="edgeStyle=orthogonalEdgeStyle;rounded=0;orthogonalLoop=1;jettySize=auto;html=1;entryX=0.5;entryY=0;entryDx=0;entryDy=0;" edge="1" parent="1" source="ghUi32SfYxXEX1xinj7Y-2" target="ghUi32SfYxXEX1xinj7Y-3">
          <mxGeometry relative="1" as="geometry" />
        </mxCell>
        <mxCell id="ghUi32SfYxXEX1xinj7Y-2" value="&lt;font style=&quot;font-size: 18px;&quot;&gt;数据血缘分析&lt;/font&gt;" style="rounded=0;whiteSpace=wrap;html=1;" vertex="1" parent="1">
          <mxGeometry x="330" y="300" width="170" height="60" as="geometry" />
        </mxCell>
        <mxCell id="ghUi32SfYxXEX1xinj7Y-7" style="edgeStyle=orthogonalEdgeStyle;rounded=0;orthogonalLoop=1;jettySize=auto;html=1;" edge="1" parent="1" source="ghUi32SfYxXEX1xinj7Y-3" target="ghUi32SfYxXEX1xinj7Y-4">
          <mxGeometry relative="1" as="geometry" />
        </mxCell>
        <mxCell id="ghUi32SfYxXEX1xinj7Y-3" value="&lt;font style=&quot;font-size: 18px;&quot;&gt;构建数据血缘图&lt;/font&gt;" style="rounded=0;whiteSpace=wrap;html=1;" vertex="1" parent="1">
          <mxGeometry x="330" y="410" width="170" height="60" as="geometry" />
        </mxCell>
        <mxCell id="ghUi32SfYxXEX1xinj7Y-4" value="&lt;font style=&quot;font-size: 18px;&quot;&gt;动态计算与资源调整&lt;/font&gt;" style="rounded=0;whiteSpace=wrap;html=1;" vertex="1" parent="1">
          <mxGeometry x="330" y="524.5" width="170" height="60" as="geometry" />
        </mxCell>
        <mxCell id="xi-kv7bJiEwfVNWZqVPa-5" value="" style="curved=1;endArrow=none;html=1;rounded=0;endFill=0;" edge="1" parent="1">
          <mxGeometry width="50" height="50" relative="1" as="geometry">
            <mxPoint x="500" y="230" as="sourcePoint" />
            <mxPoint x="580" y="180" as="targetPoint" />
            <Array as="points">
              <mxPoint x="550" y="230" />
              <mxPoint x="520" y="180" />
            </Array>
          </mxGeometry>
        </mxCell>
        <mxCell id="xi-kv7bJiEwfVNWZqVPa-6" value="S102" style="text;html=1;align=center;verticalAlign=middle;resizable=0;points=[];autosize=1;strokeColor=none;fillColor=none;" vertex="1" parent="1">
          <mxGeometry x="570" y="161" width="50" height="30" as="geometry" />
        </mxCell>
        <mxCell id="xi-kv7bJiEwfVNWZqVPa-7" value="" style="curved=1;endArrow=none;html=1;rounded=0;endFill=0;" edge="1" parent="1">
          <mxGeometry width="50" height="50" relative="1" as="geometry">
            <mxPoint x="500" y="329" as="sourcePoint" />
            <mxPoint x="580" y="279" as="targetPoint" />
            <Array as="points">
              <mxPoint x="550" y="329" />
              <mxPoint x="520" y="279" />
            </Array>
          </mxGeometry>
        </mxCell>
        <mxCell id="xi-kv7bJiEwfVNWZqVPa-8" value="S104" style="text;html=1;align=center;verticalAlign=middle;resizable=0;points=[];autosize=1;strokeColor=none;fillColor=none;" vertex="1" parent="1">
          <mxGeometry x="570" y="260" width="50" height="30" as="geometry" />
        </mxCell>
        <mxCell id="xi-kv7bJiEwfVNWZqVPa-13" value="" style="curved=1;endArrow=none;html=1;rounded=0;endFill=0;" edge="1" parent="1">
          <mxGeometry width="50" height="50" relative="1" as="geometry">
            <mxPoint x="500" y="439" as="sourcePoint" />
            <mxPoint x="580" y="389" as="targetPoint" />
            <Array as="points">
              <mxPoint x="550" y="439" />
              <mxPoint x="520" y="389" />
            </Array>
          </mxGeometry>
        </mxCell>
        <mxCell id="xi-kv7bJiEwfVNWZqVPa-14" value="S106" style="text;html=1;align=center;verticalAlign=middle;resizable=0;points=[];autosize=1;strokeColor=none;fillColor=none;" vertex="1" parent="1">
          <mxGeometry x="570" y="370" width="50" height="30" as="geometry" />
        </mxCell>
        <mxCell id="xi-kv7bJiEwfVNWZqVPa-15" value="" style="curved=1;endArrow=none;html=1;rounded=0;endFill=0;" edge="1" parent="1">
          <mxGeometry width="50" height="50" relative="1" as="geometry">
            <mxPoint x="500" y="559" as="sourcePoint" />
            <mxPoint x="580" y="509" as="targetPoint" />
            <Array as="points">
              <mxPoint x="550" y="559" />
              <mxPoint x="520" y="509" />
            </Array>
          </mxGeometry>
        </mxCell>
        <mxCell id="xi-kv7bJiEwfVNWZqVPa-16" value="S108" style="text;html=1;align=center;verticalAlign=middle;resizable=0;points=[];autosize=1;strokeColor=none;fillColor=none;" vertex="1" parent="1">
          <mxGeometry x="570" y="490" width="50" height="30" as="geometry" />
        </mxCell>
      </root>
    </mxGraphModel>
  </diagram>
  <diagram id="oAIJJSdPHxfzFHfxD7NA" name="第 2 页">
    <mxGraphModel dx="1269" dy="736" grid="1" gridSize="10" guides="1" tooltips="1" connect="1" arrows="1" fold="1" page="1" pageScale="1" pageWidth="827" pageHeight="1169" math="0" shadow="0">
      <root>
        <mxCell id="0" />
        <mxCell id="1" parent="0" />
        <mxCell id="AY-U6F1RR3BvboshDzJG-1" style="edgeStyle=orthogonalEdgeStyle;rounded=0;orthogonalLoop=1;jettySize=auto;html=1;" edge="1" parent="1" source="AY-U6F1RR3BvboshDzJG-2" target="AY-U6F1RR3BvboshDzJG-4">
          <mxGeometry relative="1" as="geometry" />
        </mxCell>
        <mxCell id="AY-U6F1RR3BvboshDzJG-2" value="&lt;font style=&quot;font-size: 18px;&quot;&gt;根据业务梳理数据之间关系的结构，描述数据的来源、去向以及转换过程，设计出数据的血缘模型。识别数据传播路径，数据在数据流中依赖关系及其影响&lt;/font&gt;" style="rounded=0;whiteSpace=wrap;html=1;" vertex="1" parent="1">
          <mxGeometry x="40" y="185" width="460" height="70" as="geometry" />
        </mxCell>
        <mxCell id="AY-U6F1RR3BvboshDzJG-3" style="edgeStyle=orthogonalEdgeStyle;rounded=0;orthogonalLoop=1;jettySize=auto;html=1;entryX=0.5;entryY=0;entryDx=0;entryDy=0;" edge="1" parent="1" source="AY-U6F1RR3BvboshDzJG-4" target="AY-U6F1RR3BvboshDzJG-6">
          <mxGeometry relative="1" as="geometry" />
        </mxCell>
        <mxCell id="AY-U6F1RR3BvboshDzJG-4" value="&lt;font style=&quot;font-size: 18px;&quot;&gt;数据血缘分析&lt;/font&gt;" style="rounded=0;whiteSpace=wrap;html=1;" vertex="1" parent="1">
          <mxGeometry x="40" y="300" width="460" height="70" as="geometry" />
        </mxCell>
        <mxCell id="AY-U6F1RR3BvboshDzJG-5" style="edgeStyle=orthogonalEdgeStyle;rounded=0;orthogonalLoop=1;jettySize=auto;html=1;" edge="1" parent="1" source="AY-U6F1RR3BvboshDzJG-6" target="AY-U6F1RR3BvboshDzJG-7">
          <mxGeometry relative="1" as="geometry" />
        </mxCell>
        <mxCell id="AY-U6F1RR3BvboshDzJG-6" value="&lt;font style=&quot;font-size: 18px;&quot;&gt;构建数据血缘图&lt;/font&gt;" style="rounded=0;whiteSpace=wrap;html=1;" vertex="1" parent="1">
          <mxGeometry x="40" y="410" width="460" height="60" as="geometry" />
        </mxCell>
        <mxCell id="AY-U6F1RR3BvboshDzJG-7" value="&lt;font style=&quot;font-size: 18px;&quot;&gt;动态计算与资源调整&lt;/font&gt;" style="rounded=0;whiteSpace=wrap;html=1;" vertex="1" parent="1">
          <mxGeometry x="40" y="524.5" width="460" height="75.5" as="geometry" />
        </mxCell>
        <mxCell id="AY-U6F1RR3BvboshDzJG-8" value="" style="curved=1;endArrow=none;html=1;rounded=0;endFill=0;" edge="1" parent="1">
          <mxGeometry width="50" height="50" relative="1" as="geometry">
            <mxPoint x="500" y="230" as="sourcePoint" />
            <mxPoint x="580" y="180" as="targetPoint" />
            <Array as="points">
              <mxPoint x="550" y="230" />
              <mxPoint x="520" y="180" />
            </Array>
          </mxGeometry>
        </mxCell>
        <mxCell id="AY-U6F1RR3BvboshDzJG-9" value="S102" style="text;html=1;align=center;verticalAlign=middle;resizable=0;points=[];autosize=1;strokeColor=none;fillColor=none;" vertex="1" parent="1">
          <mxGeometry x="570" y="161" width="50" height="30" as="geometry" />
        </mxCell>
        <mxCell id="AY-U6F1RR3BvboshDzJG-10" value="" style="curved=1;endArrow=none;html=1;rounded=0;endFill=0;" edge="1" parent="1">
          <mxGeometry width="50" height="50" relative="1" as="geometry">
            <mxPoint x="500" y="329" as="sourcePoint" />
            <mxPoint x="580" y="279" as="targetPoint" />
            <Array as="points">
              <mxPoint x="550" y="329" />
              <mxPoint x="520" y="279" />
            </Array>
          </mxGeometry>
        </mxCell>
        <mxCell id="AY-U6F1RR3BvboshDzJG-11" value="S104" style="text;html=1;align=center;verticalAlign=middle;resizable=0;points=[];autosize=1;strokeColor=none;fillColor=none;" vertex="1" parent="1">
          <mxGeometry x="570" y="260" width="50" height="30" as="geometry" />
        </mxCell>
        <mxCell id="AY-U6F1RR3BvboshDzJG-12" value="" style="curved=1;endArrow=none;html=1;rounded=0;endFill=0;" edge="1" parent="1">
          <mxGeometry width="50" height="50" relative="1" as="geometry">
            <mxPoint x="500" y="439" as="sourcePoint" />
            <mxPoint x="580" y="389" as="targetPoint" />
            <Array as="points">
              <mxPoint x="550" y="439" />
              <mxPoint x="520" y="389" />
            </Array>
          </mxGeometry>
        </mxCell>
        <mxCell id="AY-U6F1RR3BvboshDzJG-13" value="S106" style="text;html=1;align=center;verticalAlign=middle;resizable=0;points=[];autosize=1;strokeColor=none;fillColor=none;" vertex="1" parent="1">
          <mxGeometry x="570" y="370" width="50" height="30" as="geometry" />
        </mxCell>
        <mxCell id="AY-U6F1RR3BvboshDzJG-14" value="" style="curved=1;endArrow=none;html=1;rounded=0;endFill=0;" edge="1" parent="1">
          <mxGeometry width="50" height="50" relative="1" as="geometry">
            <mxPoint x="500" y="559" as="sourcePoint" />
            <mxPoint x="580" y="509" as="targetPoint" />
            <Array as="points">
              <mxPoint x="550" y="559" />
              <mxPoint x="520" y="509" />
            </Array>
          </mxGeometry>
        </mxCell>
        <mxCell id="AY-U6F1RR3BvboshDzJG-15" value="S108" style="text;html=1;align=center;verticalAlign=middle;resizable=0;points=[];autosize=1;strokeColor=none;fillColor=none;" vertex="1" parent="1">
          <mxGeometry x="570" y="490" width="50" height="30" as="geometry" />
        </mxCell>
      </root>
    </mxGraphModel>
  </diagram>
</mxfile>
